<svg width="245" height="56" viewBox="0 0 245 56" fill="none" xmlns="http://www.w3.org/2000/svg">
<g clip-path="url(#clip0_3_10085)">
<rect x="83" width="56" height="56" rx="15" fill="#12193E"/>
<path d="M96.7812 43.5313L112.362 12.3594V32.196M112.362 32.196V43.5313M112.362 32.196V28.6538M112.362 28.6538L125.109 12.3594M112.362 28.6538L125.109 43.5313" stroke="#F7CFA3" stroke-width="4"/>
<g filter="url(#filter0_f_3_10085)">
<path d="M84.75 22.9688C95.0795 22.9688 103.453 14.5951 103.453 4.26563C103.453 -6.06382 95.0795 -14.4375 84.75 -14.4375C74.4206 -14.4375 66.0469 -6.06382 66.0469 4.26563C66.0469 14.5951 74.4206 22.9688 84.75 22.9688Z" fill="#EC2F4B"/>
</g>
<g filter="url(#filter1_f_3_10085)">
<path d="M133.313 70.2188C143.642 70.2188 152.016 61.8451 152.016 51.5156C152.016 41.1862 143.642 32.8125 133.313 32.8125C122.983 32.8125 114.609 41.1862 114.609 51.5156C114.609 61.8451 122.983 70.2188 133.313 70.2188Z" fill="#0484D9"/>
</g>
</g>
<path d="M1.77744 32.176C1.58544 32.176 1.38277 32.16 1.16944 32.128C0.966771 32.096 0.742771 32.0533 0.497438 32L0.657438 29.808C0.806771 29.8507 0.961438 29.872 1.12144 29.872C1.55877 29.872 1.9001 29.696 2.14544 29.344C2.39077 28.9813 2.56677 28.464 2.67344 27.792C2.7801 27.12 2.84944 26.304 2.88144 25.344L3.04144 20.8H11.6494V32H9.08944V22.32L9.68144 22.912H4.73744L5.26544 22.288L5.16944 25.248C5.13744 26.3467 5.06277 27.3227 4.94544 28.176C4.8281 29.0293 4.64677 29.7547 4.40144 30.352C4.1561 30.9493 3.8201 31.4027 3.39344 31.712C2.96677 32.0213 2.4281 32.176 1.77744 32.176ZM16.8307 25.312H22.2227V27.328H16.8307V25.312ZM17.0227 29.92H23.1187V32H14.4467V20.8H22.9107V22.88H17.0227V29.92ZM30.5723 32.192C29.687 32.192 28.8656 32.048 28.1083 31.76C27.3616 31.472 26.711 31.0667 26.1563 30.544C25.6123 30.0213 25.1856 29.408 24.8763 28.704C24.5776 28 24.4283 27.232 24.4283 26.4C24.4283 25.568 24.5776 24.8 24.8763 24.096C25.1856 23.392 25.6176 22.7787 26.1723 22.256C26.727 21.7333 27.3776 21.328 28.1243 21.04C28.871 20.752 29.6816 20.608 30.5563 20.608C31.4416 20.608 32.2523 20.752 32.9883 21.04C33.735 21.328 34.3803 21.7333 34.9243 22.256C35.479 22.7787 35.911 23.392 36.2203 24.096C36.5296 24.7893 36.6843 25.5573 36.6843 26.4C36.6843 27.232 36.5296 28.0053 36.2203 28.72C35.911 29.424 35.479 30.0373 34.9243 30.56C34.3803 31.072 33.735 31.472 32.9883 31.76C32.2523 32.048 31.447 32.192 30.5723 32.192ZM30.5563 29.984C31.0576 29.984 31.5163 29.8987 31.9323 29.728C32.359 29.5573 32.7323 29.312 33.0523 28.992C33.3723 28.672 33.6176 28.2933 33.7883 27.856C33.9696 27.4187 34.0603 26.9333 34.0603 26.4C34.0603 25.8667 33.9696 25.3813 33.7883 24.944C33.6176 24.5067 33.3723 24.128 33.0523 23.808C32.743 23.488 32.375 23.2427 31.9483 23.072C31.5216 22.9013 31.0576 22.816 30.5563 22.816C30.055 22.816 29.591 22.9013 29.1643 23.072C28.7483 23.2427 28.3803 23.488 28.0603 23.808C27.7403 24.128 27.4896 24.5067 27.3083 24.944C27.1376 25.3813 27.0523 25.8667 27.0523 26.4C27.0523 26.9227 27.1376 27.408 27.3083 27.856C27.4896 28.2933 27.735 28.672 28.0443 28.992C28.3643 29.312 28.7376 29.5573 29.1643 29.728C29.591 29.8987 30.055 29.984 30.5563 29.984ZM46.3611 20.8H48.9531V32H46.3611V20.8ZM41.2731 32H38.6811V20.8H41.2731V32ZM46.5531 27.408H41.0811V25.216H46.5531V27.408ZM51.7592 32V20.8H54.3352V28.096L59.6792 20.8H62.1112V32H59.5512V24.72L54.2072 32H51.7592ZM72.2457 30.848V22.912H68.4057L68.3577 24.544C68.3257 25.2373 68.2777 25.8933 68.2137 26.512C68.1604 27.1307 68.075 27.696 67.9577 28.208C67.8404 28.7093 67.6857 29.136 67.4937 29.488C67.3124 29.84 67.083 30.0907 66.8057 30.24L64.0377 29.888C64.4217 29.8987 64.7364 29.7653 64.9817 29.488C65.2377 29.2107 65.4404 28.8213 65.5897 28.32C65.739 27.808 65.8457 27.2107 65.9097 26.528C65.9844 25.8453 66.0377 25.104 66.0697 24.304L66.1977 20.8H74.8057V30.848H72.2457ZM63.6697 34.32L63.6857 29.888H76.3737V34.32H73.9737V32H66.0697V34.32H63.6697Z" fill="#070707"/>
<path d="M154.921 32L151.433 26.608L153.529 25.344L157.865 32H154.921ZM147.641 32V20.8H150.217V32H147.641ZM149.465 27.488V25.328H153.369V27.488H149.465ZM153.769 26.688L151.385 26.4L155.017 20.8H157.753L153.769 26.688ZM164.393 32.192C163.507 32.192 162.686 32.048 161.929 31.76C161.182 31.472 160.531 31.0667 159.977 30.544C159.433 30.0213 159.006 29.408 158.697 28.704C158.398 28 158.249 27.232 158.249 26.4C158.249 25.568 158.398 24.8 158.697 24.096C159.006 23.392 159.438 22.7787 159.993 22.256C160.547 21.7333 161.198 21.328 161.945 21.04C162.691 20.752 163.502 20.608 164.377 20.608C165.262 20.608 166.073 20.752 166.809 21.04C167.555 21.328 168.201 21.7333 168.745 22.256C169.299 22.7787 169.731 23.392 170.041 24.096C170.35 24.7893 170.505 25.5573 170.505 26.4C170.505 27.232 170.35 28.0053 170.041 28.72C169.731 29.424 169.299 30.0373 168.745 30.56C168.201 31.072 167.555 31.472 166.809 31.76C166.073 32.048 165.267 32.192 164.393 32.192ZM164.377 29.984C164.878 29.984 165.337 29.8987 165.753 29.728C166.179 29.5573 166.553 29.312 166.873 28.992C167.193 28.672 167.438 28.2933 167.609 27.856C167.79 27.4187 167.881 26.9333 167.881 26.4C167.881 25.8667 167.79 25.3813 167.609 24.944C167.438 24.5067 167.193 24.128 166.873 23.808C166.563 23.488 166.195 23.2427 165.769 23.072C165.342 22.9013 164.878 22.816 164.377 22.816C163.875 22.816 163.411 22.9013 162.985 23.072C162.569 23.2427 162.201 23.488 161.881 23.808C161.561 24.128 161.31 24.5067 161.129 24.944C160.958 25.3813 160.873 25.8667 160.873 26.4C160.873 26.9227 160.958 27.408 161.129 27.856C161.31 28.2933 161.555 28.672 161.865 28.992C162.185 29.312 162.558 29.5573 162.985 29.728C163.411 29.8987 163.875 29.984 164.377 29.984ZM172.501 32V20.8H177.349C178.352 20.8 179.216 20.9653 179.941 21.296C180.667 21.616 181.227 22.08 181.621 22.688C182.016 23.296 182.213 24.0213 182.213 24.864C182.213 25.696 182.016 26.416 181.621 27.024C181.227 27.632 180.667 28.1013 179.941 28.432C179.216 28.752 178.352 28.912 177.349 28.912H173.941L175.093 27.744V32H172.501ZM175.093 28.032L173.941 26.8H177.205C178.005 26.8 178.603 26.6293 178.997 26.288C179.392 25.9467 179.589 25.472 179.589 24.864C179.589 24.2453 179.392 23.7653 178.997 23.424C178.603 23.0827 178.005 22.912 177.205 22.912H173.941L175.093 21.68V28.032ZM189.44 32.192C188.554 32.192 187.733 32.048 186.976 31.76C186.229 31.472 185.578 31.0667 185.024 30.544C184.48 30.0213 184.053 29.408 183.743 28.704C183.445 28 183.296 27.232 183.296 26.4C183.296 25.568 183.445 24.8 183.743 24.096C184.053 23.392 184.485 22.7787 185.039 22.256C185.594 21.7333 186.245 21.328 186.992 21.04C187.738 20.752 188.549 20.608 189.424 20.608C190.309 20.608 191.12 20.752 191.856 21.04C192.602 21.328 193.248 21.7333 193.792 22.256C194.346 22.7787 194.778 23.392 195.088 24.096C195.397 24.7893 195.552 25.5573 195.552 26.4C195.552 27.232 195.397 28.0053 195.088 28.72C194.778 29.424 194.346 30.0373 193.792 30.56C193.248 31.072 192.602 31.472 191.856 31.76C191.12 32.048 190.314 32.192 189.44 32.192ZM189.424 29.984C189.925 29.984 190.384 29.8987 190.8 29.728C191.226 29.5573 191.6 29.312 191.92 28.992C192.24 28.672 192.485 28.2933 192.656 27.856C192.837 27.4187 192.928 26.9333 192.928 26.4C192.928 25.8667 192.837 25.3813 192.656 24.944C192.485 24.5067 192.24 24.128 191.92 23.808C191.61 23.488 191.242 23.2427 190.816 23.072C190.389 22.9013 189.925 22.816 189.424 22.816C188.922 22.816 188.458 22.9013 188.032 23.072C187.616 23.2427 187.248 23.488 186.928 23.808C186.608 24.128 186.357 24.5067 186.176 24.944C186.005 25.3813 185.92 25.8667 185.92 26.4C185.92 26.9227 186.005 27.408 186.176 27.856C186.357 28.2933 186.602 28.672 186.911 28.992C187.231 29.312 187.605 29.5573 188.032 29.728C188.458 29.8987 188.922 29.984 189.424 29.984ZM197.548 32V20.8H206.588V22.864H200.124V25.168H203.228C204.583 25.168 205.612 25.4507 206.316 26.016C207.031 26.5813 207.388 27.4027 207.388 28.48C207.388 29.5893 206.994 30.4533 206.204 31.072C205.415 31.6907 204.3 32 202.86 32H197.548ZM200.124 30.08H202.716C203.378 30.08 203.884 29.952 204.236 29.696C204.588 29.4293 204.764 29.0453 204.764 28.544C204.764 27.5627 204.082 27.072 202.716 27.072H200.124V30.08ZM216.609 32L213.121 26.608L215.217 25.344L219.553 32H216.609ZM209.329 32V20.8H211.905V32H209.329ZM211.153 27.488V25.328H215.057V27.488H211.153ZM215.457 26.688L213.073 26.4L216.705 20.8H219.441L215.457 26.688ZM226.08 32.192C225.195 32.192 224.373 32.048 223.616 31.76C222.869 31.472 222.219 31.0667 221.664 30.544C221.12 30.0213 220.693 29.408 220.384 28.704C220.085 28 219.936 27.232 219.936 26.4C219.936 25.568 220.085 24.8 220.384 24.096C220.693 23.392 221.125 22.7787 221.68 22.256C222.235 21.7333 222.885 21.328 223.632 21.04C224.379 20.752 225.189 20.608 226.064 20.608C226.949 20.608 227.76 20.752 228.496 21.04C229.243 21.328 229.888 21.7333 230.432 22.256C230.987 22.7787 231.419 23.392 231.728 24.096C232.037 24.7893 232.192 25.5573 232.192 26.4C232.192 27.232 232.037 28.0053 231.728 28.72C231.419 29.424 230.987 30.0373 230.432 30.56C229.888 31.072 229.243 31.472 228.496 31.76C227.76 32.048 226.955 32.192 226.08 32.192ZM226.064 29.984C226.565 29.984 227.024 29.8987 227.44 29.728C227.867 29.5573 228.24 29.312 228.56 28.992C228.88 28.672 229.125 28.2933 229.296 27.856C229.477 27.4187 229.568 26.9333 229.568 26.4C229.568 25.8667 229.477 25.3813 229.296 24.944C229.125 24.5067 228.88 24.128 228.56 23.808C228.251 23.488 227.883 23.2427 227.456 23.072C227.029 22.9013 226.565 22.816 226.064 22.816C225.563 22.816 225.099 22.9013 224.672 23.072C224.256 23.2427 223.888 23.488 223.568 23.808C223.248 24.128 222.997 24.5067 222.816 24.944C222.645 25.3813 222.56 25.8667 222.56 26.4C222.56 26.9227 222.645 27.408 222.816 27.856C222.997 28.2933 223.243 28.672 223.552 28.992C223.872 29.312 224.245 29.5573 224.672 29.728C225.099 29.8987 225.563 29.984 226.064 29.984ZM234.189 32V20.8H239.405C240.706 20.8 241.72 21.0507 242.445 21.552C243.17 22.0533 243.533 22.768 243.533 23.696C243.533 24.6133 243.192 25.328 242.509 25.84C241.826 26.3413 240.92 26.592 239.789 26.592L240.093 25.92C241.352 25.92 242.328 26.1707 243.021 26.672C243.714 27.1733 244.061 27.8987 244.061 28.848C244.061 29.8293 243.688 30.6027 242.941 31.168C242.205 31.7227 241.128 32 239.709 32H234.189ZM236.765 30.08H239.613C240.21 30.08 240.664 29.9627 240.973 29.728C241.282 29.4933 241.437 29.1307 241.437 28.64C241.437 28.1707 241.282 27.824 240.973 27.6C240.664 27.3653 240.21 27.248 239.613 27.248H236.765V30.08ZM236.765 25.44H239.181C239.746 25.44 240.173 25.328 240.461 25.104C240.749 24.8693 240.893 24.528 240.893 24.08C240.893 23.632 240.749 23.296 240.461 23.072C240.173 22.8373 239.746 22.72 239.181 22.72H236.765V25.44Z" fill="#070707"/>
<defs>
<filter id="filter0_f_3_10085" x="46.0469" y="-34.4375" width="77.4062" height="77.4062" filterUnits="userSpaceOnUse" color-interpolation-filters="sRGB">
<feFlood flood-opacity="0" result="BackgroundImageFix"/>
<feBlend mode="normal" in="SourceGraphic" in2="BackgroundImageFix" result="shape"/>
<feGaussianBlur stdDeviation="10" result="effect1_foregroundBlur_3_10085"/>
</filter>
<filter id="filter1_f_3_10085" x="94.6094" y="12.8125" width="77.4062" height="77.4063" filterUnits="userSpaceOnUse" color-interpolation-filters="sRGB">
<feFlood flood-opacity="0" result="BackgroundImageFix"/>
<feBlend mode="normal" in="SourceGraphic" in2="BackgroundImageFix" result="shape"/>
<feGaussianBlur stdDeviation="10" result="effect1_foregroundBlur_3_10085"/>
</filter>
<clipPath id="clip0_3_10085">
<rect x="83" width="56" height="56" rx="15" fill="white"/>
</clipPath>
</defs>
</svg>
